<?xml version="1.0" encoding="iso-8859-1"?>
<!-- Generator: Adobe Illustrator 19.0.0, SVG Export Plug-In . SVG Version: 6.00 Build 0)  -->
<svg version="1.1" id="Capa_1" xmlns="http://www.w3.org/2000/svg" xmlns:xlink="http://www.w3.org/1999/xlink" x="0px" y="0px"
	 viewBox="0 0 512 512" style="enable-background:new 0 0 512 512;" xml:space="preserve">
<g>
	<g>
		<path d="M405.333,309.333c-23.564,0-42.667,19.103-42.667,42.667v42.667H85.333V352c0-23.564-19.102-42.667-42.667-42.667
			S0,328.436,0,352v117.333C0,475.224,4.776,480,10.667,480h426.667c5.891,0,10.667-4.776,10.667-10.667V352
			C448,328.436,428.898,309.333,405.333,309.333z M426.667,458.667H21.333V352c0-11.782,9.551-21.333,21.333-21.333
			C54.449,330.667,64,340.218,64,352v53.333C64,411.224,68.776,416,74.667,416h298.667c5.891,0,10.667-4.776,10.667-10.667V352
			c0-11.782,9.551-21.333,21.333-21.333c11.782,0,21.333,9.551,21.333,21.333V458.667z"/>
	</g>
</g>
<g>
	<g>
		<path d="M384,224H64c-17.673,0-32,14.327-32,32v64h21.333v-64c0-5.891,4.776-10.667,10.667-10.667h320
			c5.891,0,10.667,4.776,10.667,10.667v64H416v-64C416,238.327,401.673,224,384,224z"/>
	</g>
</g>
<g>
	<g>
		<path d="M74.667,469.333V480c0,5.891-4.776,10.667-10.667,10.667S53.333,485.891,53.333,480v-10.667H32V480
			c0,17.673,14.327,32,32,32s32-14.327,32-32v-10.667H74.667z"/>
	</g>
</g>
<g>
	<g>
		<path d="M394.667,469.333V480c0,5.891-4.776,10.667-10.667,10.667c-5.891,0-10.667-4.776-10.667-10.667v-10.667H352V480
			c0,17.673,14.327,32,32,32s32-14.327,32-32v-10.667H394.667z"/>
	</g>
</g>
<g>
	<g>
		<path d="M480,0H266.667c-17.673,0-32,14.327-32,32v170.667H256V32c0-5.891,4.776-10.667,10.667-10.667H480
			c5.891,0,10.667,4.776,10.667,10.667v213.333c0,5.891-4.776,10.667-10.667,10.667h-42.667v21.333H480c17.673,0,32-14.327,32-32V32
			C512,14.327,497.673,0,480,0z"/>
	</g>
</g>
<g>
	<g>
		<rect x="362.667" y="10.667" width="21.333" height="192"/>
	</g>
</g>
<g>
	<g>
		<rect x="245.333" y="128" width="256" height="21.333"/>
	</g>
</g>
<g>
	<g>
		<rect x="277.333" y="42.667" width="21.333" height="21.333"/>
	</g>
</g>
<g>
	<g>
		<rect x="277.333" y="85.333" width="21.333" height="21.333"/>
	</g>
</g>
<g>
	<g>
		<rect x="405.333" y="42.667" width="21.333" height="21.333"/>
	</g>
</g>
<g>
	<g>
		<rect x="405.333" y="85.333" width="21.333" height="21.333"/>
	</g>
</g>
<g>
	<g>
		<rect x="213.333" y="234.667" width="21.333" height="138.667"/>
	</g>
</g>
<g>
</g>
<g>
</g>
<g>
</g>
<g>
</g>
<g>
</g>
<g>
</g>
<g>
</g>
<g>
</g>
<g>
</g>
<g>
</g>
<g>
</g>
<g>
</g>
<g>
</g>
<g>
</g>
<g>
</g>
</svg>
