<?xml version="1.0" encoding="iso-8859-1"?>
<!-- Generator: Adobe Illustrator 19.0.0, SVG Export Plug-In . SVG Version: 6.00 Build 0)  -->
<svg version="1.1" id="Capa_1" xmlns="http://www.w3.org/2000/svg" xmlns:xlink="http://www.w3.org/1999/xlink" x="0px" y="0px"
	 viewBox="0 0 512.014 512.014" style="enable-background:new 0 0 512.014 512.014;" xml:space="preserve">
<g>
	<g>
		<path d="M124.672,280.604c-18.283-17.323-91.392-22.933-113.365-24.235c-3.029-0.043-5.824,0.875-7.957,2.88
			C1.216,261.255,0,264.071,0,267.015v192c0,5.888,4.779,10.667,10.667,10.667h64c4.608,0,8.704-2.987,10.133-7.36
			c1.557-4.779,38.315-117.589,43.157-173.056C128.235,286.023,127.04,282.823,124.672,280.604z M66.88,448.348H21.333V278.45
			c34.283,2.709,71.296,8.597,84.715,15.125C100.395,340.295,74.816,423.303,66.88,448.348z"/>
	</g>
</g>
<g>
	<g>
		<path d="M510.891,411.548c-14.827-29.632-47.637-44.715-79.744-36.672l-81.728,20.437c-5.717,1.429-9.195,7.211-7.765,12.928
			c1.429,5.717,7.211,9.216,12.928,7.765l81.728-20.395c18.645-4.651,37.632,1.877,49.387,16.128l-105.749,48.085
			c-89.685,36.757-92.779,35.584-131.243,21.077l-160-53.333c-5.632-1.856-11.627,1.152-13.483,6.741
			c-1.856,5.589,1.152,11.627,6.741,13.483l159.595,53.184c17.941,6.763,30.315,10.688,44.224,10.688
			c21.632,0,46.976-9.451,102.656-32.299l117.333-53.333c2.624-1.195,4.672-3.413,5.632-6.144
			C512.363,417.138,512.192,414.151,510.891,411.548z"/>
	</g>
</g>
<g>
	<g>
		<path d="M311.637,341.938l-192-42.667c-5.675-1.173-11.456,2.368-12.736,8.107c-1.259,5.76,2.347,11.456,8.107,12.736
			l191.723,42.603c23.637,5.909,33.131,15.211,34.432,34.688l-20.48,5.12c-7.573,1.899-15.659,2.112-23.381,0.555l-92.544-18.517
			c-5.845-1.216-11.392,2.581-12.544,8.363c-1.152,5.781,2.581,11.392,8.363,12.544l92.565,18.517
			c4.8,0.96,9.728,1.429,14.635,1.429c6.101,0,12.224-0.747,18.091-2.219l28.715-7.168c4.757-1.195,8.085-5.461,8.085-10.347v-3.371
			C362.667,369.372,347.029,350.77,311.637,341.938z"/>
	</g>
</g>
<g>
	<g>
		<path d="M501.333,235.015H96c-5.888,0-10.667,4.779-10.667,10.667S90.112,256.348,96,256.348h405.333
			c5.888,0,10.667-4.779,10.667-10.667S507.221,235.015,501.333,235.015z"/>
	</g>
</g>
<g>
	<g>
		<path d="M298.667,43.015c-105.856,0-192,86.144-192,192v10.667c0,5.888,4.779,10.667,10.667,10.667H480
			c5.888,0,10.667-4.779,10.667-10.667v-10.667C490.667,129.159,404.523,43.015,298.667,43.015z M128,235.015
			c0-94.123,76.565-170.667,170.667-170.667s170.667,76.565,170.667,170.667H128z"/>
	</g>
</g>
<g>
	<g>
		<path d="M298.667,85.682c-69.525,0-129.28,47.232-145.323,114.859c-1.344,5.739,2.197,11.477,7.915,12.843
			c0.832,0.213,1.664,0.299,2.475,0.299c4.843,0,9.216-3.307,10.368-8.213c13.76-57.963,64.981-98.453,124.565-98.453
			c5.888,0,10.667-4.779,10.667-10.667S304.555,85.682,298.667,85.682z"/>
	</g>
</g>
<g>
	<g>
		<path d="M298.667,0.348C275.136,0.348,256,19.484,256,43.015v10.667c0,5.888,4.779,10.667,10.667,10.667
			s10.667-4.779,10.667-10.667V43.015c0-11.755,9.579-21.333,21.333-21.333c11.755,0,21.333,9.579,21.333,21.333v10.667
			c0,5.888,4.779,10.667,10.667,10.667s10.667-4.779,10.667-10.667V43.015C341.333,19.484,322.197,0.348,298.667,0.348z"/>
	</g>
</g>
<g>
	<g>
		<path d="M487.552,238.151c-4.16-4.16-10.923-4.16-15.083,0l-39.552,39.552H164.416l-39.552-39.552
			c-4.16-4.16-10.923-4.16-15.083,0c-4.16,4.16-4.16,10.923,0,15.083l42.667,42.667c2.005,1.984,4.715,3.115,7.552,3.115h277.333
			c2.837,0,5.547-1.131,7.552-3.115l42.667-42.667C491.712,249.074,491.712,242.311,487.552,238.151z"/>
	</g>
</g>
<g>
</g>
<g>
</g>
<g>
</g>
<g>
</g>
<g>
</g>
<g>
</g>
<g>
</g>
<g>
</g>
<g>
</g>
<g>
</g>
<g>
</g>
<g>
</g>
<g>
</g>
<g>
</g>
<g>
</g>
</svg>
